<svg width="72" height="72" viewBox="0 0 72 72" fill="none" xmlns="http://www.w3.org/2000/svg">
<path d="M9 12C10.6569 12 12 10.6569 12 9C12 7.34315 10.6569 6 9 6C7.34315 6 6 7.34315 6 9C6 10.6569 7.34315 12 9 12Z" fill="#FF7800"/>
<path d="M9 22C10.6569 22 12 20.6569 12 19C12 17.3431 10.6569 16 9 16C7.34315 16 6 17.3431 6 19C6 20.6569 7.34315 22 9 22Z" fill="#C5E86C"/>
<path d="M64 67C65.6569 67 67 65.6569 67 64C67 62.3431 65.6569 61 64 61C62.3431 61 61 62.3431 61 64C61 65.6569 62.3431 67 64 67Z" fill="#C5E86C"/>
<path d="M54 67C55.6569 67 57 65.6569 57 64C57 62.3431 55.6569 61 54 61C52.3431 61 51 62.3431 51 64C51 65.6569 52.3431 67 54 67Z" fill="#FF7800"/>
<path d="M40.83 33.54C39.4558 32.6751 37.8284 32.3029 36.2148 32.4846C34.6013 32.6663 33.0974 33.3911 31.95 34.54L17.76 48.72C16.4167 50.0633 15.662 51.8852 15.662 53.785C15.662 55.6847 16.4167 57.5066 17.76 58.85C19.1033 60.1933 20.9252 60.948 22.825 60.948C24.7247 60.948 26.5467 60.1933 27.89 58.85L39 47.76" stroke="#FF7800" stroke-width="4" stroke-linecap="round" stroke-linejoin="round"/>
<path d="M38.39 40.46C39.7642 41.3249 41.3916 41.697 43.0052 41.5153C44.6187 41.3336 46.1226 40.6089 47.27 39.46L61.46 25.28C62.1252 24.6148 62.6528 23.8252 63.0128 22.9562C63.3727 22.0871 63.558 21.1557 63.558 20.215C63.558 19.2743 63.3727 18.3429 63.0128 17.4738C62.6528 16.6048 62.1252 15.8151 61.46 15.15C60.7949 14.4848 60.0052 13.9572 59.1362 13.5973C58.2671 13.2373 57.3357 13.052 56.395 13.052C54.4953 13.052 52.6733 13.8067 51.33 15.15L40.24 26.24" stroke="#C5E86C" stroke-width="4" stroke-linecap="round" stroke-linejoin="round"/>
<path d="M37.23 32.54C35.8543 31.6743 34.2252 31.3017 32.6099 31.4834C30.9946 31.6651 29.4891 32.3903 28.34 33.54L14.16 47.72C12.8167 49.0633 12.062 50.8852 12.062 52.785C12.062 54.6847 12.8167 56.5066 14.16 57.85C15.5033 59.1933 17.3253 59.9479 19.225 59.9479C21.1247 59.9479 22.9467 59.1933 24.29 57.85L35.38 46.76" stroke="#0000DC" stroke-width="4" stroke-linecap="round" stroke-linejoin="round"/>
<path d="M34.78 39.46C36.1558 40.3257 37.7849 40.6982 39.4001 40.5165C41.0154 40.3348 42.521 39.6097 43.67 38.46L57.86 24.28C59.1351 22.9217 59.8313 21.1205 59.8014 19.2577C59.7715 17.395 59.0178 15.617 57.6998 14.3004C56.3818 12.9837 54.6031 12.2317 52.7404 12.2036C50.8776 12.1756 49.0771 12.8736 47.72 14.15L36.63 25.24" stroke="#0000DC" stroke-width="4" stroke-linecap="round" stroke-linejoin="round"/>
</svg>
