<svg width="72" height="72" viewBox="0 0 72 72" fill="none" xmlns="http://www.w3.org/2000/svg">
<path d="M51.8 18.91C52.1579 18.911 52.5072 19.0199 52.8023 19.2225C53.0974 19.4251 53.3246 19.7119 53.4541 20.0456C53.5837 20.3792 53.6097 20.7442 53.5287 21.0929C53.4477 21.4415 53.2634 21.7576 53 22C39.33 35.67 46.7 28.22 39.31 35.61C39.1464 35.7734 39.0166 35.9675 38.9281 36.1811C38.8396 36.3948 38.794 36.6237 38.794 36.855C38.794 37.0862 38.8396 37.3152 38.9281 37.5288C39.0166 37.7424 39.1464 37.9365 39.31 38.1C39.4711 38.269 39.6651 38.4032 39.8801 38.4944C40.0951 38.5855 40.3265 38.6317 40.56 38.63C40.79 38.6306 41.018 38.5859 41.2308 38.4984C41.4435 38.4109 41.637 38.2823 41.8 38.12L45.8 34.12C46.0947 33.92 46.4438 33.8153 46.8 33.82C47.031 33.8189 47.2599 33.8644 47.4729 33.9538C47.6859 34.0431 47.8788 34.1745 48.04 34.34C48.2045 34.5019 48.3351 34.6949 48.4242 34.9078C48.5134 35.1207 48.5593 35.3492 48.5593 35.58C48.5593 35.8108 48.5134 36.0393 48.4242 36.2522C48.3351 36.465 48.2045 36.6581 48.04 36.82L44.31 40.55C44.0651 40.7967 43.8987 41.1104 43.8318 41.4515C43.765 41.7927 43.8007 42.146 43.9344 42.4669C44.0681 42.7878 44.2938 43.0619 44.5831 43.2547C44.8724 43.4474 45.2123 43.5502 45.56 43.55C45.7898 43.5445 46.0161 43.493 46.2257 43.3985C46.4352 43.304 46.6237 43.1685 46.78 43L48.85 41C49.013 40.8376 49.2064 40.709 49.4192 40.6215C49.632 40.534 49.8599 40.4893 50.09 40.49C50.4376 40.4898 50.7775 40.5925 51.0668 40.7853C51.3561 40.978 51.5819 41.2522 51.7156 41.5731C51.8493 41.8939 51.885 42.2473 51.8181 42.5884C51.7513 42.9296 51.5849 43.2433 51.34 43.49L49.26 45.56C49.0151 45.8067 48.8487 46.1204 48.7818 46.4615C48.715 46.8027 48.7507 47.156 48.8844 47.4769C49.0181 47.7978 49.2438 48.0719 49.5331 48.2647C49.8224 48.4574 50.1623 48.5602 50.51 48.56C50.7439 48.5559 50.9745 48.5041 51.1877 48.4078C51.4009 48.3115 51.5922 48.1727 51.75 48L52.16 47.59C52.4941 47.2633 52.9427 47.0803 53.41 47.08C53.7589 47.0769 54.1008 47.1783 54.3917 47.371C54.6826 47.5637 54.9093 47.8389 55.0426 48.1614C55.1759 48.4839 55.2097 48.8389 55.1398 49.1808C55.0698 49.5226 54.8992 49.8358 54.65 50.08L41.73 63C40.7388 63.9856 39.3978 64.5388 38 64.5388C36.6022 64.5388 35.2612 63.9856 34.27 63L24.15 52.89C23.6432 52.3797 23.2454 51.7717 22.9807 51.103C22.716 50.4344 22.5899 49.7189 22.61 49C22.61 48.94 23.23 30.31 23.23 30.24C23.2379 29.7776 23.4285 29.3371 23.7601 29.0148C24.0918 28.6925 24.5376 28.5146 25 28.52H25.09C25.555 28.5558 25.988 28.7708 26.2977 29.1197C26.6073 29.4685 26.7695 29.9239 26.75 30.39L26.52 39.16C26.5106 39.3982 26.5494 39.636 26.6341 39.8588C26.7188 40.0817 26.8477 40.2852 27.013 40.4571C27.1783 40.6289 27.3766 40.7656 27.5961 40.8589C27.8155 40.9522 28.0515 41.0002 28.29 41C28.5178 40.9995 28.7432 40.9532 28.9528 40.8638C29.1624 40.7745 29.3518 40.644 29.51 40.48L50.56 19.48C50.723 19.3176 50.9164 19.189 51.1292 19.1015C51.342 19.014 51.5699 18.9693 51.8 18.97V18.91ZM51.8 14.97C51.0433 14.9669 50.2936 15.1148 49.5947 15.4049C48.8959 15.6951 48.2619 16.1218 47.73 16.66L30.66 33.66L30.74 30.51C30.7846 28.9973 30.2403 27.5264 29.2218 26.4072C28.2033 25.288 26.7901 24.6078 25.28 24.51H25C23.494 24.5018 22.0453 25.0869 20.9674 26.1386C19.8894 27.1904 19.2689 28.6242 19.24 30.13C19.24 30.23 19.1 34.54 18.95 39C18.64 48.38 18.62 48.84 18.62 48.88C18.5859 50.1426 18.8085 51.399 19.2743 52.573C19.7401 53.747 20.4395 54.8142 21.33 55.71L31.44 65.84C33.1798 67.5761 35.5372 68.5511 37.995 68.5511C40.4528 68.5511 42.8102 67.5761 44.55 65.84L57.48 52.91C58.556 51.8287 59.16 50.3654 59.16 48.84C59.16 47.3146 58.556 45.8512 57.48 44.77C56.9665 44.2554 56.3588 43.8446 55.69 43.56C55.7985 43.1182 55.8523 42.6648 55.85 42.21C55.8508 41.4536 55.702 40.7045 55.4119 40.006C55.1218 39.3075 54.6964 38.6733 54.16 38.14C53.6501 37.6257 53.0457 37.2149 52.38 36.93C52.4835 36.4907 52.5372 36.0412 52.54 35.59C52.5431 34.8333 52.3952 34.0836 52.105 33.3847C51.8148 32.6859 51.3882 32.0519 50.85 31.52C50.5503 31.2195 50.2143 30.9575 49.85 30.74L55.85 24.81C56.6645 24.0086 57.2232 22.9839 57.4556 21.8651C57.6879 20.7464 57.5835 19.5838 57.1554 18.5244C56.7274 17.465 55.995 16.5562 55.0507 15.9129C54.1063 15.2696 52.9925 14.9206 51.85 14.91L51.8 14.97Z" fill="#C5E86C"/>
<path d="M48.12 18.91C48.4788 18.909 48.8295 19.0164 49.1262 19.2183C49.4228 19.4201 49.6515 19.7068 49.7824 20.0409C49.9132 20.375 49.94 20.7408 49.8593 21.0904C49.7785 21.44 49.5941 21.7571 49.33 22C35.66 35.65 43 28.2 35.65 35.59C35.4852 35.7527 35.3544 35.9466 35.2651 36.1603C35.1758 36.374 35.1298 36.6034 35.1298 36.835C35.1298 37.0666 35.1758 37.2959 35.2651 37.5096C35.3544 37.7233 35.4852 37.9172 35.65 38.08C35.8111 38.249 36.0052 38.3832 36.2202 38.4743C36.4351 38.5655 36.6665 38.6117 36.9 38.61C37.1301 38.6106 37.358 38.566 37.5708 38.4784C37.7836 38.3909 37.977 38.2623 38.14 38.1L42.14 34.1C42.4348 33.9 42.7838 33.7953 43.14 33.8C43.371 33.7989 43.5999 33.8444 43.8129 33.9338C44.026 34.0231 44.2188 34.1545 44.38 34.32C44.5445 34.4819 44.6751 34.6749 44.7643 34.8878C44.8534 35.1007 44.8994 35.3292 44.8994 35.56C44.8994 35.7908 44.8534 36.0193 44.7643 36.2322C44.6751 36.445 44.5445 36.6381 44.38 36.8L40.66 40.53C40.4955 40.6919 40.3649 40.8849 40.2757 41.0978C40.1866 41.3107 40.1407 41.5392 40.1407 41.77C40.1407 42.0008 40.1866 42.2293 40.2757 42.4422C40.3649 42.655 40.4955 42.8481 40.66 43.01C40.8219 43.1745 41.0149 43.3051 41.2278 43.3942C41.4407 43.4834 41.6692 43.5293 41.9 43.5293C42.1308 43.5293 42.3593 43.4834 42.5722 43.3942C42.7851 43.3051 42.9781 43.1745 43.14 43.01L45.17 41C45.333 40.8376 45.5265 40.709 45.7392 40.6215C45.952 40.534 46.1799 40.4893 46.41 40.49C46.7577 40.4898 47.0976 40.5925 47.3869 40.7853C47.6762 40.978 47.9019 41.2522 48.0356 41.5731C48.1693 41.8939 48.205 42.2473 48.1382 42.5884C48.0713 42.9296 47.9049 43.2433 47.66 43.49L45.59 45.56C45.4255 45.7219 45.2949 45.9149 45.2057 46.1278C45.1166 46.3407 45.0707 46.5692 45.0707 46.8C45.0707 47.0308 45.1166 47.2593 45.2057 47.4722C45.2949 47.685 45.4255 47.8781 45.59 48.04C45.7519 48.2045 45.9449 48.3351 46.1578 48.4242C46.3707 48.5134 46.5992 48.5593 46.83 48.5593C47.0608 48.5593 47.2893 48.5134 47.5022 48.4242C47.7151 48.3351 47.9081 48.2045 48.07 48.04L48.48 47.63C48.8141 47.3033 49.2627 47.1203 49.73 47.12C50.0789 47.1169 50.4208 47.2183 50.7118 47.411C51.0027 47.6037 51.2293 47.8789 51.3626 48.2014C51.4959 48.5239 51.5298 48.8789 51.4598 49.2208C51.3898 49.5626 51.2193 49.8758 50.97 50.12L38.05 63C37.0588 63.9856 35.7178 64.5388 34.32 64.5388C32.9222 64.5388 31.5812 63.9856 30.59 63L20.47 52.89C19.9652 52.3783 19.5686 51.7701 19.304 51.1017C19.0394 50.4334 18.9122 49.7186 18.93 49C18.93 48.94 19.55 30.31 19.55 30.24C19.5605 29.7811 19.7509 29.3447 20.0801 29.0248C20.4093 28.7049 20.851 28.5272 21.31 28.53H21.4C21.8651 28.5658 22.2981 28.7808 22.6077 29.1297C22.9174 29.4785 23.0795 29.9339 23.06 30.4L22.83 39.17C22.8219 39.4083 22.8621 39.6457 22.948 39.8681C23.034 40.0905 23.164 40.2932 23.3302 40.4641C23.4964 40.635 23.6955 40.7706 23.9154 40.8627C24.1353 40.9548 24.3716 41.0015 24.61 41C24.838 41.0006 25.0638 40.9548 25.2735 40.8655C25.4832 40.7761 25.6726 40.6449 25.83 40.48L46.88 19.48C47.043 19.3176 47.2365 19.189 47.4492 19.1015C47.662 19.014 47.8899 18.9693 48.12 18.97V18.91ZM48.12 14.97C47.3633 14.9669 46.6136 15.1148 45.9148 15.4049C45.2159 15.6951 44.582 16.1218 44.05 16.66L27 33.64L27.08 30.49C27.1272 28.9767 26.5838 27.5044 25.5647 26.3846C24.5457 25.2648 23.1311 24.5853 21.62 24.49H21.33C19.824 24.4818 18.3753 25.0669 17.2974 26.1186C16.2194 27.1704 15.5989 28.6042 15.57 30.11C15.57 30.21 15.43 34.52 15.28 38.98C14.97 48.36 14.96 48.82 14.95 48.86C14.9154 50.1235 15.1388 51.3808 15.6065 52.5552C16.0741 53.7295 16.7763 54.7961 17.67 55.69L27.76 65.84C29.5015 67.5767 31.8606 68.5519 34.32 68.5519C36.7795 68.5519 39.1385 67.5767 40.88 65.84L53.8 52.91C54.876 51.8287 55.48 50.3654 55.48 48.84C55.48 47.3146 54.876 45.8512 53.8 44.77C53.2836 44.2544 52.6724 43.8435 52 43.56C52.1086 43.1182 52.1623 42.6648 52.16 42.21C52.1609 41.4536 52.012 40.7045 51.7219 40.006C51.4319 39.3075 51.0064 38.6733 50.47 38.14C49.9602 37.6257 49.3558 37.2149 48.69 36.93C48.7936 36.4907 48.8472 36.0412 48.85 35.59C48.8531 34.8333 48.7052 34.0836 48.415 33.3847C48.1249 32.6859 47.6982 32.0519 47.16 31.52C46.8603 31.2195 46.5244 30.9575 46.16 30.74L52.11 24.81C53.1748 23.7418 53.7851 22.3031 53.8131 20.7952C53.841 19.2872 53.2845 17.8269 52.26 16.72C51.7214 16.1492 51.072 15.6943 50.3516 15.3831C49.6311 15.0718 48.8548 14.9109 48.07 14.91L48.12 14.97Z" fill="#0000DC"/>
<path d="M16.2 13.54L22.03 17.49" stroke="#FF7800" stroke-width="4" stroke-linecap="round" stroke-linejoin="round"/>
<path d="M27.05 13.22L25.04 6.25" stroke="#FF7800" stroke-width="4" stroke-linecap="round" stroke-linejoin="round"/>
<path d="M35.02 5.70999L33.8 12.51" stroke="#FF7800" stroke-width="4" stroke-linecap="round" stroke-linejoin="round"/>
<path d="M66.89 10C67.9946 10 68.89 9.10457 68.89 8C68.89 6.89543 67.9946 6 66.89 6C65.7854 6 64.89 6.89543 64.89 8C64.89 9.10457 65.7854 10 66.89 10Z" fill="#C5E86C"/>
<path d="M6.5 67.86C8.15685 67.86 9.5 66.5168 9.5 64.86C9.5 63.2031 8.15685 61.86 6.5 61.86C4.84315 61.86 3.5 63.2031 3.5 64.86C3.5 66.5168 4.84315 67.86 6.5 67.86Z" fill="#FF7800"/>
</svg>
