<svg width="72" height="73" viewBox="0 0 72 73" fill="none" xmlns="http://www.w3.org/2000/svg">
<circle cx="36" cy="21.2727" r="9" fill="#FF7800"/>
<circle cx="54.0909" cy="4.09091" r="4.09091" fill="#C5E86C"/>
<circle cx="54.0909" cy="21.2727" r="4.09091" fill="#C5E86C"/>
<circle cx="54.0909" cy="38.4546" r="4.09091" fill="#C5E86C"/>
<circle cx="16.0909" cy="4.09091" r="4.09091" fill="#C5E86C"/>
<circle cx="16.0909" cy="21.2727" r="4.09091" fill="#C5E86C"/>
<circle cx="16.0909" cy="38.4546" r="4.09091" fill="#C5E86C"/>
<circle cx="35.0909" cy="38.4546" r="4.09091" fill="#C5E86C"/>
<circle cx="35.0909" cy="4.09091" r="4.09091" fill="#C5E86C"/>
<path d="M56.2159 34.3296C55.3052 34.3296 54.4564 34.6066 53.7518 35.0786C53.1447 33.3546 51.4982 32.1137 49.5682 32.1137C48.6574 32.1137 47.8087 32.3907 47.104 32.8627C46.4969 31.1388 44.8505 29.8978 42.9204 29.8978C42.1139 29.8978 41.356 30.115 40.7046 30.4939V23.2501C40.7046 20.8059 38.7169 18.8182 36.2727 18.8182C33.8285 18.8182 31.8409 20.8059 31.8409 23.2501V49.1563L25.7494 46.1094C24.832 45.6506 23.8038 45.4091 22.7778 45.4091C20.4423 45.4091 18.5454 47.3082 18.5454 49.6549C18.5454 50.7872 18.9863 51.8486 19.7864 52.6485L34.1144 66.9766C37.3518 70.2163 41.6618 72.0001 46.2443 72.0001C54.1862 72.0001 60.6478 65.5385 60.6478 57.5966V38.7614C60.6478 36.3172 58.6601 34.3296 56.2159 34.3296ZM58.4318 57.5966C58.4318 64.3175 52.9629 69.7841 46.242 69.7841C42.2512 69.7841 38.5019 68.2307 35.6833 65.4077L21.353 51.0797C20.9719 50.7007 20.7614 50.1933 20.7614 49.6416C20.7614 48.5292 21.6655 47.6251 22.7778 47.6251C23.4625 47.6251 24.1451 47.7869 24.7589 48.0926L32.4547 51.9395C32.7982 52.1102 33.2081 52.0924 33.5317 51.8908C33.8574 51.6892 34.0568 51.3324 34.0568 50.949V23.2501C34.0568 22.0291 35.0495 21.0342 36.2727 21.0342C37.4959 21.0342 38.4886 22.0292 38.4886 23.2501V44.3013C38.4886 44.9129 38.985 45.4093 39.5966 45.4093C40.2082 45.4093 40.7046 44.9129 40.7046 44.3013V34.3297C40.7046 33.1087 41.6973 32.1138 42.9204 32.1138C44.1436 32.1138 45.1363 33.1088 45.1363 34.3297V44.3013C45.1363 44.9129 45.6327 45.4093 46.2443 45.4093C46.8559 45.4093 47.3523 44.9129 47.3523 44.3013V36.5455C47.3523 35.3245 48.345 34.3297 49.5682 34.3297C50.7914 34.3297 51.784 35.3246 51.784 36.5455V44.3013C51.784 44.9129 52.2804 45.4093 52.892 45.4093C53.5036 45.4093 54 44.9129 54 44.3013V38.7614C54 37.5404 54.9927 36.5455 56.2159 36.5455C57.4391 36.5455 58.4318 37.5405 58.4318 38.7614V57.5966Z" fill="#0000DC" stroke="#0000DC"/>
</svg>
