<svg width="176" height="24" viewBox="0 0 176 24" fill="none" xmlns="http://www.w3.org/2000/svg">
<g clip-path="url(#clip0_10557_263498)">
<path d="M46.5882 8.82351C46.5882 6.85777 45.8073 4.97259 44.4173 3.5826C43.0274 2.19262 41.1421 1.41174 39.1764 1.41174H28.2353V13.0729C27.6967 13.4702 27.2209 13.9461 26.8235 14.4847V1.41174H25.4117V22.5882H29.647V18.3529C29.647 17.7913 29.8701 17.2526 30.2673 16.8555C30.6644 16.4584 31.203 16.2353 31.7647 16.2353H38.8235L41.5482 21.7976C41.6635 22.0331 41.8422 22.2317 42.0641 22.3714C42.286 22.511 42.5425 22.5861 42.8047 22.5882H46.5882L42.96 15.1623C44.0615 14.51 44.9749 13.583 45.6109 12.4719C46.2469 11.3608 46.5836 10.1037 46.5882 8.82351ZM29.647 5.64704H39.1764C40.0189 5.64704 40.8268 5.98172 41.4226 6.57739C42.0182 7.17311 42.3529 7.98106 42.3529 8.82351C42.3529 9.66596 42.0182 10.4739 41.4226 11.0696C40.8268 11.6653 40.0189 12 39.1764 12H31.7647C31.0412 12.0071 30.3244 12.1409 29.647 12.3953V5.64704ZM44.3294 21.1765H42.7482L40.2917 16.1223C40.7723 16.049 41.245 15.9308 41.7035 15.7694L44.3294 21.1765ZM39.1764 14.8235H31.7647C30.8286 14.8235 29.9309 15.1954 29.269 15.8573C28.6071 16.5191 28.2353 17.4169 28.2353 18.3529V21.1765H26.8235V18.3529C26.8235 17.0424 27.3441 15.7856 28.2708 14.859C29.1974 13.9323 30.4542 13.4117 31.7647 13.4117H39.1764C40.3933 13.4117 41.5604 12.9284 42.4208 12.0679C43.2813 11.2074 43.7647 10.0404 43.7647 8.82351C43.7647 7.60662 43.2813 6.4396 42.4208 5.57913C41.5604 4.71866 40.3933 4.23527 39.1764 4.23527H29.647V2.82351H39.1764C40.7677 2.82351 42.2939 3.45565 43.4191 4.58087C44.5443 5.7061 45.1764 7.23222 45.1764 8.82351C45.1764 10.4148 44.5443 11.9409 43.4191 13.0661C42.2939 14.1914 40.7677 14.8235 39.1764 14.8235Z" fill="#0000DC"/>
<path d="M0 2.82351H10.8847C10.3428 3.21692 9.86635 3.69337 9.47294 4.23527H0V5.64704H8.86588C8.61148 6.32445 8.47774 7.04116 8.47059 7.76469V22.5882H12.7059V7.76469C12.7059 7.20304 12.929 6.6644 13.3261 6.26727C13.7232 5.87014 14.2619 5.64704 14.8235 5.64704H19.7647C20.1391 5.64704 20.4982 5.49829 20.763 5.23353C21.0277 4.96878 21.1765 4.6097 21.1765 4.23527V1.41174H0V2.82351ZM14.8235 2.82351H19.7647V4.23527H14.8235C13.8875 4.23527 12.9897 4.60712 12.3279 5.26901C11.666 5.9309 11.2941 6.82864 11.2941 7.76469V21.1765H9.88235V7.76469C9.88235 6.45419 10.4029 5.19739 11.3296 4.27075C12.2562 3.34409 13.513 2.82351 14.8235 2.82351Z" fill="#0000DC"/>
<path d="M163.059 8.57301e-06C159.89 -0.00377912 156.848 1.24767 154.599 3.48062C152.351 5.71355 151.078 8.74626 151.059 11.9153V12C151.059 14.3734 151.763 16.6935 153.081 18.6668C154.4 20.6402 156.274 22.1783 158.467 23.0865C160.659 23.9948 163.072 24.2324 165.4 23.7694C167.727 23.3064 169.866 22.1635 171.544 20.4853C173.222 18.8071 174.365 16.6688 174.828 14.3411C175.291 12.0133 175.054 9.60052 174.145 7.40781C173.237 5.21511 171.699 3.34095 169.726 2.02237C167.752 0.703798 165.432 8.57301e-06 163.059 8.57301e-06ZM163.059 22.5882C160.252 22.5845 157.561 21.4678 155.576 19.4829C153.591 17.498 152.474 14.807 152.471 12C152.471 11.6706 152.471 11.36 152.471 11.0682C152.705 8.80061 153.774 6.70113 155.47 5.17751C157.166 3.65391 159.367 2.81493 161.647 2.82353C161.882 2.80881 162.118 2.80881 162.353 2.82353C160.577 2.96353 158.88 3.61821 157.471 4.70748C156.061 5.7967 154.999 7.27327 154.416 8.95647C153.832 10.6397 153.752 12.4564 154.185 14.1845C154.618 15.9125 155.546 17.4768 156.854 18.686C158.162 19.8952 159.794 20.6968 161.551 20.9927C163.308 21.2885 165.113 21.0658 166.745 20.3519C168.377 19.6379 169.766 18.4637 170.741 16.9728C171.716 15.4819 172.235 13.7391 172.235 11.9576C172.237 9.27294 171.216 6.68828 169.381 4.72932C167.545 2.77031 165.032 1.58405 162.353 1.41177C162.593 1.39772 162.833 1.39772 163.073 1.41177C165.881 1.41177 168.574 2.52731 170.56 4.51299C172.545 6.49868 173.661 9.19181 173.661 12C173.661 14.8082 172.545 17.5013 170.56 19.487C168.574 21.4727 165.881 22.5882 163.073 22.5882H163.059ZM163.059 4.2353C164.594 4.2353 166.095 4.69069 167.373 5.5439C168.649 6.39708 169.645 7.60979 170.232 9.02856C170.82 10.4474 170.974 12.0086 170.674 13.5148C170.375 15.021 169.635 16.4046 168.549 17.4905C167.463 18.5764 166.08 19.3159 164.574 19.6155C163.067 19.9151 161.506 19.7614 160.087 19.1736C158.669 18.586 157.456 17.5907 156.603 16.3138C155.75 15.0369 155.294 13.5357 155.294 12C155.294 9.94066 156.112 7.96569 157.568 6.5095C159.024 5.05336 160.999 4.2353 163.059 4.2353Z" fill="#0000DC"/>
<path d="M62.1882 1.41174L71.8588 21.1765H70.2776L60.6212 1.41174H59.0541L52.1506 15.5294H65.9435L66.6353 16.9412H52.3482C52.0838 16.9406 51.824 17.0145 51.5995 17.1542C51.375 17.2941 51.1939 17.4941 51.0776 17.7317L48.7059 22.5882H52.5459C52.808 22.5861 53.0645 22.511 53.2866 22.3714C53.5082 22.2317 53.687 22.0331 53.8023 21.7976L54.9035 19.5388C55.0795 19.1834 55.351 18.8842 55.6875 18.6747C56.0245 18.4652 56.4127 18.3538 56.8094 18.3529H67.327L69.007 21.7976C69.1233 22.0352 69.3044 22.2353 69.5289 22.3751C69.7534 22.5149 70.0131 22.5887 70.2776 22.5882H74.1176L63.7694 1.41174H62.1882ZM54.4235 14.1176L59.8447 3.02116L61.1717 5.75998C60.8179 5.79292 60.4786 5.91683 60.1863 6.11965C59.8946 6.32252 59.6602 6.59739 59.5059 6.91763L55.9906 14.1176H54.4235ZM57.5576 14.1176L60.7764 7.52468C60.8348 7.40586 60.9252 7.30581 61.0376 7.23593C61.1496 7.16605 61.2795 7.12911 61.4117 7.12939C61.5421 7.1301 61.6696 7.1676 61.7793 7.23753C61.8894 7.30746 61.9769 7.40699 62.0329 7.52468L65.2659 14.1176H57.5576ZM53.647 18.9176L52.5459 21.1765H50.9647L52.3765 18.3529H54.0565C53.904 18.529 53.767 18.7179 53.647 18.9176Z" fill="#0000DC"/>
<path d="M93.1764 2.82351V14.8235C93.1816 14.9737 93.135 15.1212 93.0456 15.2417C92.9557 15.3622 92.8277 15.4487 92.6823 15.487C92.5454 15.5356 92.3971 15.5399 92.2578 15.4994C92.1181 15.4588 91.9952 15.3755 91.9058 15.2612L81.5294 1.41174H79.7646L95.647 22.5882H97.4117V1.41174H94.5882C94.2136 1.41174 93.8545 1.56048 93.5901 1.82524C93.3251 2.09 93.1764 2.44908 93.1764 2.82351ZM96 2.82351V20.7106L93.0917 16.8423C93.5096 16.7014 93.8715 16.4312 94.1251 16.0708C94.3793 15.7103 94.5115 15.2784 94.5035 14.8376V2.82351H96Z" fill="#0000DC"/>
<path d="M76.2353 1.41174V22.5882H79.0588C79.4334 22.5882 79.7925 22.4395 80.0569 22.1747C80.3219 21.91 80.4706 21.5509 80.4706 21.1765V9.17645C80.4602 9.02205 80.5016 8.86859 80.5887 8.74064C80.6758 8.61269 80.8033 8.51758 80.9506 8.47057C81.0922 8.42393 81.2452 8.42342 81.3873 8.46906C81.5294 8.51471 81.6532 8.60422 81.7412 8.72469L92.1176 22.5882H93.8823L78 1.41174H76.2353ZM80.4706 7.17174C80.0518 7.31071 79.6885 7.58045 79.4343 7.94135C79.1802 8.30224 79.0485 8.73518 79.0588 9.17645V21.1765H77.6471V3.28939L80.4706 7.15763V7.17174Z" fill="#0000DC"/>
<path d="M121.412 18.3529H109.412C109.262 18.357 109.115 18.3125 108.993 18.2259C108.871 18.1394 108.78 18.0155 108.734 17.8729C108.687 17.7312 108.687 17.5783 108.733 17.4363C108.778 17.2942 108.868 17.1703 108.988 17.0823L122.823 6.70587V4.94116L101.647 20.8235V22.5882H122.823V19.7647C122.823 19.3902 122.675 19.0312 122.41 18.7664C122.145 18.5017 121.786 18.3529 121.412 18.3529ZM121.412 21.1765H103.525L107.393 18.2682C107.536 18.6871 107.809 19.0495 108.172 19.3033C108.535 19.557 108.969 19.6889 109.412 19.68H121.412V21.1765Z" fill="#0000DC"/>
<path d="M101.647 4.23527C101.647 4.6097 101.796 4.96878 102.061 5.23353C102.325 5.49828 102.684 5.64704 103.059 5.64704H115.059C115.203 5.65071 115.343 5.69876 115.46 5.78464C115.576 5.87052 115.663 5.9901 115.71 6.12723C115.756 6.26431 115.759 6.41231 115.718 6.55118C115.678 6.69005 115.595 6.81301 115.482 6.90351L101.647 17.2941V19.0588L122.823 3.17645V1.41174H101.647V4.23527ZM103.059 2.82351H120.946L117.078 5.71763V5.64704C116.936 5.22694 116.663 4.86327 116.3 4.6092C115.937 4.35515 115.502 4.22411 115.059 4.23527H103.059V2.82351Z" fill="#0000DC"/>
<path d="M146.823 18.3529H134.823C134.674 18.357 134.527 18.3125 134.405 18.2259C134.282 18.1394 134.191 18.0155 134.146 17.8729C134.095 17.7316 134.092 17.5773 134.137 17.4342C134.183 17.291 134.276 17.1672 134.4 17.0823L148.235 6.70587V4.94116L127.059 20.8235V22.5882H148.235V19.7647C148.235 19.3902 148.087 19.0312 147.822 18.7664C147.557 18.5017 147.198 18.3529 146.823 18.3529ZM146.823 21.1765H128.936L132.805 18.2682C132.948 18.6871 133.221 19.0495 133.584 19.3033C133.947 19.557 134.381 19.6889 134.823 19.68H146.823V21.1765Z" fill="#0000DC"/>
<path d="M127.059 4.23527C127.059 4.6097 127.207 4.96878 127.472 5.23353C127.737 5.49828 128.096 5.64704 128.471 5.64704H140.471C140.615 5.65071 140.755 5.69876 140.871 5.78464C140.988 5.87052 141.075 5.9901 141.121 6.12723C141.168 6.26431 141.171 6.41231 141.13 6.55118C141.089 6.69005 141.007 6.81301 140.894 6.90351L127.059 17.2941V19.0588L148.235 3.17645V1.41174H127.059V4.23527ZM128.471 2.82351H146.343L142.489 5.71763V5.64704C142.346 5.22817 142.073 4.86572 141.71 4.61198C141.347 4.35824 140.913 4.22633 140.471 4.23527H128.471V2.82351Z" fill="#0000DC"/>
</g>
<defs>
<clipPath id="clip0_10557_263498">
<rect width="175.059" height="24" fill="white"/>
</clipPath>
</defs>
</svg>
